<svg xmlns="http://www.w3.org/2000/svg" width="221.56" height="55.926" viewBox="0 0 221.56 55.926">
  <g id="LAA_Logo_Web_Sentence" transform="translate(0.029 -0.01)">
    <path id="Path_378" data-name="Path 378" d="M1.2,17.276C-3.6,31.3,7.01,34.253,10.239,32.592c7.2-3.691-4.429-28.6-9.042-15.316" transform="translate(0 -1.036)" fill="#28326e"/>
    <path id="Path_379" data-name="Path 379" d="M25.289,14.764c.646-3.6,1.476-18.361-7.1-13.932-5.721,2.953-8.027,10.057-4.429,16.331s10.334,3.875,11.533-2.4" transform="translate(-0.933)" fill="#28326e"/>
    <path id="Path_380" data-name="Path 380" d="M41.236,17.931A11.427,11.427,0,0,0,37.822,1.415c-8.4-4.982-8.4,9.873-7.935,13.471.738,6.366,7.289,9.134,11.349,3.045" transform="translate(-2.301 -0.03)" fill="#28326e"/>
    <path id="Path_381" data-name="Path 381" d="M53.8,18.858c-3.783-13.563-16.885,10.7-9.965,14.67,3.137,1.938,13.932-.369,9.965-14.67" transform="translate(-3.238 -1.142)" fill="#28326e"/>
    <path id="Path_382" data-name="Path 382" d="M41.151,37.955a11.225,11.225,0,0,1-10.98,19.192A16.051,16.051,0,0,0,20.3,56.87a11.24,11.24,0,0,1-9.78-19.837C17.992,31.5,17.531,24.023,26.3,24.3c8.673.369,7.75,7.75,14.855,13.656M25.189,34.541c.185.738.738,1.753,1.292.738.277-.554.646-1.107.923-1.661a1.994,1.994,0,0,0-.092-2.03,3.7,3.7,0,0,0-1.569-.83,1.487,1.487,0,0,1-.646-.369,1.62,1.62,0,0,0-.461-.369,2.725,2.725,0,0,0-1.2-.185c-.369,0-.738-.185-1.107-.185a1.371,1.371,0,0,0-.83.185,1.93,1.93,0,0,0-.554.369,6.618,6.618,0,0,0-1.938.461c-.646.369-.738,1.384-.646,2.03.185.646.277,1.292.461,1.845.277,1.015.923.461,1.292-.185v1.015h0a1.048,1.048,0,0,1-.277.738,5.109,5.109,0,0,0-.923,1.476,19.036,19.036,0,0,0-1.107,3.229,8.262,8.262,0,0,1-.738,2.122,20.539,20.539,0,0,0-1.753,2.214A9.419,9.419,0,0,0,14.3,47.827a6.782,6.782,0,0,0,0,3.045c0,.092.092.185.092.277-.185-.092-.277-.277-.461-.369h0c-.092-.092-.369-.554-.461-.646a5.2,5.2,0,0,1-.369-1.107,4.625,4.625,0,0,1-.092-1.569,6.756,6.756,0,0,1,.738-2.307,16.19,16.19,0,0,0,1.015-2.214,8.324,8.324,0,0,0-1.845,1.292,5.516,5.516,0,0,0-1.845,4.613,6.362,6.362,0,0,0,1.292,2.768A4.866,4.866,0,0,0,15.132,52.9a44.027,44.027,0,0,0,8.858,0c.092,0,.092-.369.092-.461,0-.369-.185-.554-.554-.738-.092,0-.738-.092-.738-.092.185-1.015.185-2.03.461-3.045l.738-1.845a39.041,39.041,0,0,0,.277,4.337c.092.461,0,1.569.461,1.753h1.661c.369,0,.461-.83-.185-1.107-.185-.092-.369-.092-.461-.185s-.092-.461-.092-.554a27.788,27.788,0,0,1-.092-4.8c.092-2.4.646-3.967.554-6a4.965,4.965,0,0,0-.369-2.03c0-.092-.092-.185-.092-.277a4.971,4.971,0,0,0-.646-1.2.7.7,0,0,1-.092-.738,12.1,12.1,0,0,0,.277-1.384m15.87,12.917a5.438,5.438,0,0,0-.923-2.4,6.756,6.756,0,0,1-.83-2.122c-.092-.83-.83-.923-.738.092a5.438,5.438,0,0,0,.923,2.4,6.757,6.757,0,0,1,.83,2.122,4.272,4.272,0,0,1-1.661,3.691,3.5,3.5,0,0,1-2.122.554c-.185,0-.369-.092-.369-.277-.277-3.875-1.569-7.474-3.783-9.227a7.82,7.82,0,0,0-.923-1.661,3.584,3.584,0,0,0-.185-2.583,2.9,2.9,0,0,0-.185-2.214c0-.092-.092-.092-.185,0a4.189,4.189,0,0,0-1.2,1.384,5.109,5.109,0,0,0-1.661.185,3.048,3.048,0,0,0-1.569-1.015c-.092,0-.185,0-.185.092a2.6,2.6,0,0,0,.461,2.03A4.517,4.517,0,0,0,27.311,41a9.778,9.778,0,0,0,.369,4.982,11.291,11.291,0,0,1,.83,2.491c0,.092.092.277.092.369A24.243,24.243,0,0,1,28.7,51.61H28.6a.555.555,0,0,0-.369.092c-.277.277-.461.83.185.83h.646a.4.4,0,0,0,.369-.369,25.611,25.611,0,0,0-.092-4.521,7.346,7.346,0,0,1,.83,3.967c-.461.092-.646.277-.646.646,0,.185.092.369.277.369,0,0,2.768.185,3.506.277a6.7,6.7,0,0,0,2.768-.277,5.52,5.52,0,0,0,2.86-.738,4.678,4.678,0,0,0,2.122-4.429" transform="translate(-0.464 -1.878)" fill="#28326e"/>
    <g id="Group_271" data-name="Group 271" transform="translate(59.049 0.278)">
      <path id="Path_383" data-name="Path 383" d="M66,23.621V1.2h4.89V19.377h9.78v4.244H66Z" transform="translate(-64.155 -0.37)" fill="#28326e"/>
      <path id="Path_384" data-name="Path 384" d="M92.358,24.516a9.76,9.76,0,0,1-4.429-.923A8.5,8.5,0,0,1,84.7,20.825,7.878,7.878,0,0,1,83.5,16.3a8.192,8.192,0,0,1,1.107-4.337,7.973,7.973,0,0,1,2.953-2.86A8.325,8.325,0,0,1,91.8,8a9.818,9.818,0,0,1,4.152.923,6.418,6.418,0,0,1,2.768,2.4,6.583,6.583,0,0,1,1.015,3.6,7.239,7.239,0,0,1-.185,1.292,3.619,3.619,0,0,1-.461,1.2H88.021a4.1,4.1,0,0,0,.738,1.845,4.009,4.009,0,0,0,1.569,1.107,6.059,6.059,0,0,0,2.307.369,7.575,7.575,0,0,0,2.583-.461,10.617,10.617,0,0,0,2.307-1.107l1.384,3.229a12.483,12.483,0,0,1-3.137,1.569A9.456,9.456,0,0,1,92.358,24.516ZM88.206,14.459h6.828a.09.09,0,0,1,.092-.092v-.185a2.118,2.118,0,0,0-.369-1.292,3.29,3.29,0,0,0-1.015-.923,4.651,4.651,0,0,0-1.753-.277,3.744,3.744,0,0,0-1.753.369,2.774,2.774,0,0,0-1.292,1.015A2.539,2.539,0,0,0,88.206,14.459Z" transform="translate(-65.508 -0.895)" fill="#28326e"/>
      <path id="Path_385" data-name="Path 385" d="M106.676,5.375a2.643,2.643,0,0,1-1.938-.738A2.576,2.576,0,0,1,104,2.791a2.362,2.362,0,0,1,.738-1.753A2.643,2.643,0,0,1,106.676.3a3.04,3.04,0,0,1,2.03.738,2.576,2.576,0,0,1,.738,1.845,2.576,2.576,0,0,1-.738,1.845A4.055,4.055,0,0,1,106.676,5.375Zm-2.4,18.177V7.774h4.706V23.551Z" transform="translate(-67.093 -0.3)" fill="#28326e"/>
      <path id="Path_386" data-name="Path 386" d="M121.173,24.524a10.485,10.485,0,0,1-4.521-1.015,7.036,7.036,0,0,1-3.045-2.86,8.192,8.192,0,0,1-1.107-4.337,8.192,8.192,0,0,1,1.107-4.337,7.581,7.581,0,0,1,3.045-2.86A9.9,9.9,0,0,1,121.173,8.1a11.718,11.718,0,0,1,3.137.461,7.409,7.409,0,0,1,2.676,1.384l-1.661,3.506a7.423,7.423,0,0,0-2.122-1.015,7.865,7.865,0,0,0-2.122-.277,4.4,4.4,0,0,0-2.03.461,4.271,4.271,0,0,0-1.384,1.476,4.493,4.493,0,0,0-.461,2.307,5.244,5.244,0,0,0,.461,2.214,4.271,4.271,0,0,0,1.384,1.476,3.675,3.675,0,0,0,2.03.461,8.377,8.377,0,0,0,2.122-.277,8.791,8.791,0,0,0,2.122-1.015l1.661,3.506a10.547,10.547,0,0,1-2.676,1.384A8.388,8.388,0,0,1,121.173,24.524Z" transform="translate(-67.75 -0.903)" fill="#28326e"/>
      <path id="Path_387" data-name="Path 387" d="M139.258,24.524a9.76,9.76,0,0,1-4.429-.923,8.5,8.5,0,0,1-3.229-2.768,7.878,7.878,0,0,1-1.2-4.521,8.192,8.192,0,0,1,1.107-4.337,7.972,7.972,0,0,1,2.953-2.86A9.292,9.292,0,0,1,138.7,8.1a9.81,9.81,0,0,1,4.152.83,6.418,6.418,0,0,1,2.768,2.4,6.583,6.583,0,0,1,1.015,3.6,7.239,7.239,0,0,1-.185,1.292,3.618,3.618,0,0,1-.461,1.2H134.921a4.1,4.1,0,0,0,.738,1.845,4.009,4.009,0,0,0,1.569,1.107,6.059,6.059,0,0,0,2.307.369,7.575,7.575,0,0,0,2.583-.461,10.617,10.617,0,0,0,2.307-1.107l1.384,3.229a12.483,12.483,0,0,1-3.137,1.569A9.456,9.456,0,0,1,139.258,24.524Zm-4.152-10.057h6.828a.09.09,0,0,1,.092-.092V14.19a2.118,2.118,0,0,0-.369-1.292,3.29,3.29,0,0,0-1.015-.923,4.651,4.651,0,0,0-1.753-.277,3.744,3.744,0,0,0-1.753.369,2.774,2.774,0,0,0-1.292,1.015A2.538,2.538,0,0,0,135.106,14.466Z" transform="translate(-69.135 -0.903)" fill="#28326e"/>
      <path id="Path_388" data-name="Path 388" d="M157.135,24.531a15.24,15.24,0,0,1-3.506-.461,14.541,14.541,0,0,1-3.229-1.476l1.569-3.322a13.824,13.824,0,0,0,2.953,1.384,8.445,8.445,0,0,0,2.307.461,3.251,3.251,0,0,0,1.845-.369,1.135,1.135,0,0,0,.646-1.015.969.969,0,0,0-.461-.83,4.932,4.932,0,0,0-1.476-.554l-2.03-.277a7.229,7.229,0,0,1-3.6-1.569,3.765,3.765,0,0,1-1.2-2.953,5.045,5.045,0,0,1,.738-2.676,4.605,4.605,0,0,1,2.214-1.938,8.9,8.9,0,0,1,3.783-.738,13.723,13.723,0,0,1,3.322.461,11.969,11.969,0,0,1,2.953,1.292l-1.476,3.229a17.431,17.431,0,0,0-2.307-1.015,7.308,7.308,0,0,0-2.214-.461,3.855,3.855,0,0,0-1.661.277A1.06,1.06,0,0,0,155.751,13a.7.7,0,0,0,.369.646,3.419,3.419,0,0,0,1.384.461l2.03.277a6.867,6.867,0,0,1,3.691,1.661,4.1,4.1,0,0,1,1.292,3.137,4.9,4.9,0,0,1-1.845,3.875A8.789,8.789,0,0,1,157.135,24.531Z" transform="translate(-70.681 -0.911)" fill="#28326e"/>
      <path id="Path_389" data-name="Path 389" d="M176.065,24.076a5.98,5.98,0,0,1-4.244-1.292,5.386,5.386,0,0,1-1.292-3.967V11.8H167.3V8.021h3.229V3.5h4.613V8.021h3.875V11.8h-3.875v6.551a1.91,1.91,0,0,0,.461,1.384,2.167,2.167,0,0,0,1.476.461H178.1c.369,0,.738-.092.923-.092v3.6q-.554.138-1.384.277C177.08,23.983,176.619,24.076,176.065,24.076Z" transform="translate(-71.988 -0.547)" fill="#28326e"/>
      <path id="Path_390" data-name="Path 390" d="M191.158,24.524a9.76,9.76,0,0,1-4.429-.923,8.5,8.5,0,0,1-3.229-2.768,7.878,7.878,0,0,1-1.2-4.521,8.192,8.192,0,0,1,1.107-4.337,7.972,7.972,0,0,1,2.953-2.86A9.292,9.292,0,0,1,190.6,8.1a9.81,9.81,0,0,1,4.152.83,6.418,6.418,0,0,1,2.768,2.4,6.583,6.583,0,0,1,1.015,3.6,7.238,7.238,0,0,1-.185,1.292,3.618,3.618,0,0,1-.461,1.2H186.821a4.1,4.1,0,0,0,.738,1.845,4.008,4.008,0,0,0,1.569,1.107,6.059,6.059,0,0,0,2.307.369,7.575,7.575,0,0,0,2.583-.461,10.618,10.618,0,0,0,2.307-1.107l1.384,3.229a12.483,12.483,0,0,1-3.137,1.569A9.456,9.456,0,0,1,191.158,24.524Zm-4.244-10.057h6.828a.09.09,0,0,1,.092-.092V14.19a2.118,2.118,0,0,0-.369-1.292,3.29,3.29,0,0,0-1.015-.923A4.651,4.651,0,0,0,190.7,11.7a3.744,3.744,0,0,0-1.753.369,2.774,2.774,0,0,0-1.292,1.015A3.327,3.327,0,0,0,186.913,14.466Z" transform="translate(-73.148 -0.903)" fill="#28326e"/>
      <path id="Path_391" data-name="Path 391" d="M203.1,24.162V8.385h4.429v2.4a4.778,4.778,0,0,1,1.753-2.03,5.383,5.383,0,0,1,2.4-.554,1.8,1.8,0,0,1,.738.092,1.312,1.312,0,0,1,.554.185v4.429c-.277-.092-.646-.092-.923-.185-.369,0-.646-.092-1.015-.092a3,3,0,0,0-2.307,1.015,4.055,4.055,0,0,0-.923,2.953v7.658H203.1Z" transform="translate(-74.756 -0.911)" fill="#28326e"/>
      <path id="Path_392" data-name="Path 392" d="M64,57.621,72.765,35.2h5.444l8.765,22.421H81.531l-1.384-3.967H70.736l-1.384,3.967Zm8.027-7.935h6.735l-3.322-9.411Z" transform="translate(-64 -2.999)" fill="#28326e"/>
      <path id="Path_393" data-name="Path 393" d="M91.1,58.147V42.369h4.429v1.938a5.767,5.767,0,0,1,1.938-1.661A6.192,6.192,0,0,1,100.511,42a6.015,6.015,0,0,1,4.244,1.569,6.422,6.422,0,0,1,1.569,4.706v9.873h-4.706V48.92a3.032,3.032,0,0,0-.646-2.214,2.366,2.366,0,0,0-1.938-.738,3.059,3.059,0,0,0-2.4,1.015,4.4,4.4,0,0,0-.83,2.86v8.212H91.1Z" transform="translate(-66.096 -3.525)" fill="#28326e"/>
      <path id="Path_394" data-name="Path 394" d="M113.776,39.375a2.643,2.643,0,0,1-1.938-.738,2.576,2.576,0,0,1-.738-1.845,2.362,2.362,0,0,1,.738-1.753,2.643,2.643,0,0,1,1.938-.738,3.04,3.04,0,0,1,2.03.738,2.676,2.676,0,0,1,0,3.691A3.544,3.544,0,0,1,113.776,39.375Zm-2.307,18.177V41.774h4.706V57.551Z" transform="translate(-67.642 -2.929)" fill="#28326e"/>
      <path id="Path_395" data-name="Path 395" d="M120.5,58.147V42.369h4.429v1.753a5.084,5.084,0,0,1,1.845-1.569A6.162,6.162,0,0,1,129.542,42a5.344,5.344,0,0,1,4.613,2.307,4.7,4.7,0,0,1,2.03-1.753A7.482,7.482,0,0,1,139.23,42a5.79,5.79,0,0,1,4.337,1.569c1.015,1.015,1.476,2.583,1.476,4.706v9.873h-4.706V48.92a3.548,3.548,0,0,0-.554-2.214,2.289,2.289,0,0,0-1.845-.738,2.625,2.625,0,0,0-2.122,1.015,4.4,4.4,0,0,0-.83,2.86v8.212h-4.613V48.828a3.548,3.548,0,0,0-.554-2.214,2.093,2.093,0,0,0-1.753-.738,2.808,2.808,0,0,0-2.214,1.015,5.027,5.027,0,0,0-.738,2.86v8.212H120.5Z" transform="translate(-68.369 -3.525)" fill="#28326e"/>
      <path id="Path_396" data-name="Path 396" d="M156.013,58.516a7.65,7.65,0,0,1-2.953-.554,4.353,4.353,0,0,1-2.86-4.244,4.3,4.3,0,0,1,.738-2.583,5.159,5.159,0,0,1,2.122-1.476,12.55,12.55,0,0,1,2.953-.738l5.075-.646a2.645,2.645,0,0,0-1.2-1.845,4.383,4.383,0,0,0-2.214-.554,6.2,6.2,0,0,0-2.214.369,20.415,20.415,0,0,0-2.676,1.2l-1.476-3.322a11.607,11.607,0,0,1,3.229-1.569A11.01,11.01,0,0,1,157.95,42a9.184,9.184,0,0,1,5.721,1.569c1.384,1.015,2.03,2.676,2.03,4.982v9.6h-4.429V56.394a6.365,6.365,0,0,1-2.214,1.661A9.194,9.194,0,0,1,156.013,58.516Zm1.384-3.6a4.4,4.4,0,0,0,2.03-.461,2.523,2.523,0,0,0,1.2-1.2,3.11,3.11,0,0,0,.461-1.569v-.461l-3.6.461a6.173,6.173,0,0,0-1.938.554,1.252,1.252,0,0,0-.646,1.2,1.2,1.2,0,0,0,.646,1.107A3.659,3.659,0,0,0,157.4,54.917Z" transform="translate(-70.666 -3.525)" fill="#28326e"/>
      <path id="Path_397" data-name="Path 397" d="M171.1,57.621V35.2h4.706V57.621Z" transform="translate(-72.282 -2.999)" fill="#28326e"/>
      <path id="Path_398" data-name="Path 398" d="M186.5,57.621,195.265,35.2h5.444l8.765,22.421h-5.352l-1.384-3.967h-9.411l-1.384,3.967Zm8.027-7.935h6.736l-3.322-9.411Z" transform="translate(-73.473 -2.999)" fill="#28326e"/>
      <path id="Path_399" data-name="Path 399" d="M215.876,39.375a2.643,2.643,0,0,1-1.938-.738,2.576,2.576,0,0,1-.738-1.845,2.362,2.362,0,0,1,.738-1.753,2.643,2.643,0,0,1,1.938-.738,3.04,3.04,0,0,1,2.03.738,2.676,2.676,0,0,1,0,3.691A4.055,4.055,0,0,1,215.876,39.375Zm-2.4,18.177V41.774h4.706V57.551Z" transform="translate(-75.538 -2.929)" fill="#28326e"/>
      <path id="Path_400" data-name="Path 400" d="M229.258,57.982a8.091,8.091,0,0,1-3.875-1.015,7.516,7.516,0,0,1-2.768-2.86,9.24,9.24,0,0,1-1.015-4.429,9.507,9.507,0,0,1,1.015-4.429,6.893,6.893,0,0,1,2.768-2.86,7.572,7.572,0,0,1,3.875-1.015,6.878,6.878,0,0,1,2.86.554,4.533,4.533,0,0,1,1.938,1.476V35.1h4.613V57.521h-4.429v-2.03a5.4,5.4,0,0,1-2.03,1.753A4.852,4.852,0,0,1,229.258,57.982Zm1.107-4.06a4.4,4.4,0,0,0,2.03-.461,4.271,4.271,0,0,0,1.384-1.476,4.345,4.345,0,0,0,.461-2.214,5.244,5.244,0,0,0-.461-2.214A4.271,4.271,0,0,0,232.4,46.08a3.675,3.675,0,0,0-2.03-.461,4.7,4.7,0,0,0-2.03.461,4.941,4.941,0,0,0-1.384,1.384,4.493,4.493,0,0,0-.461,2.307,5.575,5.575,0,0,0,.461,2.214,4.271,4.271,0,0,0,1.384,1.476A4.7,4.7,0,0,0,230.365,53.922Z" transform="translate(-76.187 -2.991)" fill="#28326e"/>
    </g>
  </g>
</svg>
